<?xml version="1.0" standalone="no"?>
<!DOCTYPE svg PUBLIC "-//W3C//DTD SVG 20010904//EN"
 "http://www.w3.org/TR/2001/REC-SVG-20010904/DTD/svg10.dtd">
<svg version="1.0" xmlns="http://www.w3.org/2000/svg"
 width="100.000000pt" height="100.000000pt" viewBox="0 0 100.000000 100.000000"
 preserveAspectRatio="xMidYMid meet">

<g transform="translate(0.000000,100.000000) scale(0.100000,-0.100000)"
fill="#000000" stroke="none">
<path d="M360 700 c-19 -19 -20 -33 -20 -205 0 -150 -3 -185 -14 -185 -7 0
-19 -6 -25 -14 -7 -8 -20 -12 -30 -9 -19 5 -71 -53 -71 -79 0 -22 22 -38 50
-37 23 1 23 2 -5 8 -33 7 -46 38 -23 55 8 6 17 19 21 30 5 13 13 17 31 12 16
-4 26 -1 30 9 8 22 44 18 58 -5 7 -11 17 -20 23 -20 5 0 23 -11 40 -24 25 -20
27 -26 16 -39 -7 -9 -33 -18 -59 -20 l-47 -3 48 -2 c36 -2 51 3 64 18 16 18
30 20 135 20 161 0 158 -3 158 175 l0 135 78 0 c64 0 82 4 95 18 26 28 21 48
-20 80 -44 34 -83 47 -83 27 0 -9 8 -11 21 -8 13 4 27 0 33 -8 6 -8 20 -19 31
-25 24 -14 31 -40 15 -59 -9 -11 -35 -15 -91 -15 l-79 0 0 27 c0 18 -13 40
-37 65 -26 27 -32 38 -21 38 9 0 20 -5 24 -11 4 -7 11 -2 18 13 13 27 50 35
74 16 15 -12 16 -11 3 5 -18 22 -54 22 -74 -1 -22 -24 -68 -18 -98 14 -21 23
-29 24 -136 24 -100 0 -115 -2 -133 -20z m240 -40 c0 -66 23 -90 85 -90 l45 0
0 -157 c0 -201 6 -193 -146 -193 -112 0 -114 0 -168 35 -29 18 -56 41 -60 50
-3 9 -6 96 -6 193 0 222 -7 212 142 212 l108 0 0 -50z m75 -20 l59 -60 -46 0
c-60 0 -78 18 -78 76 0 24 1 44 3 44 1 0 29 -27 62 -60z"/>
<path d="M480 616 c0 -2 9 -6 20 -9 11 -3 18 -1 14 4 -5 9 -34 13 -34 5z"/>
<path d="M454 579 c-3 -6 -1 -16 5 -22 8 -8 11 -7 11 5 0 9 6 19 13 21 7 3 6
6 -5 6 -9 1 -20 -4 -24 -10z"/>
<path d="M527 584 c-4 -4 -7 -14 -7 -23 0 -11 3 -12 11 -4 6 6 10 16 7 23 -2
6 -7 8 -11 4z"/>
<path d="M453 488 c-40 -19 -25 -28 45 -28 l67 1 -24 19 c-26 22 -54 24 -88 8z"/>
</g>
</svg>
